<svg xmlns="http://www.w3.org/2000/svg" width="40" height="40" viewBox="0 0 40 40"><defs><style>.a{fill:#fff;}.b{fill:#060707;}</style></defs><g transform="translate(40 40) rotate(180)"><circle class="a" cx="20" cy="20" r="20"/><path class="b" d="M22.3,13.28H11.2L15.5,9.161a1.716,1.716,0,0,0,0-2.345,1.534,1.534,0,0,0-2.241,0L6.092,13.767a1.58,1.58,0,0,0-.467,1.162v.021a1.58,1.58,0,0,0,.467,1.162l7.164,6.951a1.534,1.534,0,0,0,2.241,0,1.716,1.716,0,0,0,0-2.345L11.191,16.6h11.1a1.624,1.624,0,0,0,1.587-1.66A1.607,1.607,0,0,0,22.3,13.28Z" transform="translate(34.752 34.94) rotate(180)"/></g></svg>