<svg xmlns="http://www.w3.org/2000/svg" xmlns:xlink="http://www.w3.org/1999/xlink" width="381" height="66" viewBox="0 0 381 66"><defs><style>.a{fill:#fff;}.b,.d{fill:none;}.c,.g{fill:#060707;}.c,.e,.f{fill-rule:evenodd;}.d{stroke:#34c77b;stroke-linecap:round;stroke-linejoin:round;stroke-width:2px;}.f{fill:#0f1114;}.h{filter:url(#a);}</style><filter id="a" x="0" y="0" width="381" height="66" filterUnits="userSpaceOnUse"><feOffset dy="-1" input="SourceAlpha"/><feGaussianBlur stdDeviation="1" result="b"/><feFlood flood-opacity="0.141"/><feComposite operator="in" in2="b"/><feComposite in="SourceGraphic"/></filter></defs><g transform="translate(3 4)"><g class="h" transform="matrix(1, 0, 0, 1, -3, -4)"><rect class="a" width="375" height="60" transform="translate(3 4)"/></g><g transform="translate(98 15)"><path class="b" d="M0,0H30V30H0Z"/><g transform="translate(3.08 3.065)"><g transform="translate(4 2)"><path class="c" d="M15.84,16.193c0,3.3-4.52,3.677-7.919,3.677H7.678C5.512,19.865,0,19.728,0,16.173c0-3.229,4.338-3.66,7.711-3.676h.453C10.33,12.5,15.84,12.638,15.84,16.193ZM7.921,14C3.66,14,1.5,14.728,1.5,16.173s2.16,2.2,6.421,2.2,6.419-.732,6.419-2.177S12.181,14,7.921,14Zm0-14a5.31,5.31,0,0,1,0,10.619H7.889A5.31,5.31,0,0,1,7.921,0Zm0,1.428a3.882,3.882,0,0,0-.029,7.764l.029.714V9.192a3.882,3.882,0,0,0,0-7.764Z"/></g></g></g><g transform="translate(25 24)"><path class="d" d="M4.5,18H21.1" transform="translate(-4.5 -11.693)"/><path class="d" d="M4.5,9H21.1" transform="translate(-4.5 -9)"/><path class="d" d="M4.5,27H21.1" transform="translate(-4.5 -14.386)"/></g><g transform="translate(333 20)"><path class="e" d="M11.105,13.545a2.065,2.065,0,0,1,2.07,2.056v2.915a.447.447,0,0,0,.445.445h1.807a2.567,2.567,0,0,0,2.581-2.548V8.145A1.589,1.589,0,0,0,17.376,6.9L11.127,1.921a2.29,2.29,0,0,0-2.854,0L2.067,6.9a1.588,1.588,0,0,0-.645,1.259v8.253A2.567,2.567,0,0,0,4,18.961H5.826a.46.46,0,0,0,.465-.454.765.765,0,0,1,.018-.162V15.6a2.068,2.068,0,0,1,2.056-2.056Zm4.322,6.837H13.6a1.865,1.865,0,0,1-1.85-1.866V15.6a.642.642,0,0,0-.648-.634H8.37a.642.642,0,0,0-.639.634v2.906a.688.688,0,0,1-.029.2,1.885,1.885,0,0,1-1.876,1.672H4a3.991,3.991,0,0,1-4-3.969V8.154A2.989,2.989,0,0,1,1.193,5.782L7.387.811a3.708,3.708,0,0,1,4.625,0l6.238,4.976a2.993,2.993,0,0,1,1.179,2.35v8.279a3.991,3.991,0,0,1-4,3.969Z" transform="translate(0 0)"/></g><g transform="translate(183 19)"><g transform="translate(2 2)"><path class="f" d="M8.644,0a8.639,8.639,0,0,1,6.368,14.482l2.779,2.773a.666.666,0,0,1-.941.943l-2.812-2.8A8.642,8.642,0,1,1,8.644,0Zm0,1.331a7.312,7.312,0,1,0,7.312,7.312A7.32,7.32,0,0,0,8.644,1.331Z" transform="translate(0 0)"/></g></g><path class="g" d="M9.552,28.443H10l7.9-11.686q.155-.31-.172-.31h-3.26L17.9,10.191c.1-.207.023-.31-.23-.31H13.294a.417.417,0,0,0-.333.207L9.77,18.583c-.023.207.046.31.218.31h3.157Zm9.757-7.266h.31l5.992-8.8a.261.261,0,0,0,.046-.23c-.023-.057-.092-.08-.2-.08H23.052l2.5-4.626q.207-.344-.207-.344H22.2a.37.37,0,0,0-.344.218L19.47,13.6a.247.247,0,0,0,.011.241.256.256,0,0,0,.218.08h2.342Z" transform="translate(250.447 11.908)"/></g></svg>