<svg xmlns="http://www.w3.org/2000/svg" xmlns:xlink="http://www.w3.org/1999/xlink" width="48" height="48" viewBox="0 0 48 48"><defs><style>.a{stroke:#fff;fill:url(#a);}.b{fill:#060707;}.c{stroke:none;}.d{fill:none;}</style><linearGradient id="a" x1="0.5" x2="0.5" y2="1" gradientUnits="objectBoundingBox"><stop offset="0" stop-color="#fceabb"/><stop offset="1" stop-color="#f8b500"/></linearGradient></defs><g class="a"><circle class="c" cx="24" cy="24" r="24"/><circle class="d" cx="24" cy="24" r="23.5"/></g><path class="b" d="M10.319,7.266a5.292,5.292,0,1,0,5.292,5.292A5.283,5.283,0,0,0,10.319,7.266Zm0,8.732a3.44,3.44,0,1,1,3.44-3.44A3.446,3.446,0,0,1,10.319,16Zm6.742-8.948a1.234,1.234,0,1,1-1.234-1.234A1.231,1.231,0,0,1,17.061,7.049Zm3.5,1.253A6.108,6.108,0,0,0,18.9,3.977,6.148,6.148,0,0,0,14.574,2.31c-1.7-.1-6.811-.1-8.515,0A6.139,6.139,0,0,0,1.734,3.973,6.128,6.128,0,0,0,.067,8.3c-.1,1.7-.1,6.811,0,8.515a6.108,6.108,0,0,0,1.667,4.324A6.156,6.156,0,0,0,6.059,22.8c1.7.1,6.811.1,8.515,0A6.108,6.108,0,0,0,18.9,21.137a6.148,6.148,0,0,0,1.667-4.324c.1-1.7.1-6.807,0-8.511Zm-2.2,10.339A3.483,3.483,0,0,1,16.4,20.6c-1.359.539-4.582.414-6.084.414s-4.73.12-6.084-.414a3.483,3.483,0,0,1-1.962-1.962c-.539-1.359-.414-4.582-.414-6.084s-.12-4.73.414-6.084A3.483,3.483,0,0,1,4.235,4.512C5.594,3.973,8.817,4.1,10.319,4.1s4.73-.12,6.084.414a3.483,3.483,0,0,1,1.962,1.962c.539,1.359.414,4.582.414,6.084S18.9,17.287,18.364,18.641Z" transform="translate(13.489 11.119)"/></svg>