<svg xmlns="http://www.w3.org/2000/svg" xmlns:xlink="http://www.w3.org/1999/xlink" width="48" height="48" viewBox="0 0 48 48"><defs><style>.a{fill:#060707;}.b{stroke:#fff;fill:url(#a);}.c{clip-path:url(#b);}.d{stroke:none;}.e{fill:none;}</style><linearGradient id="a" x1="0.5" x2="0.5" y2="1" gradientUnits="objectBoundingBox"><stop offset="0" stop-color="#fceabb"/><stop offset="1" stop-color="#f8b500"/></linearGradient><clipPath id="b"><rect class="a" width="22.846" height="16.436"/></clipPath></defs><g class="b"><circle class="d" cx="24" cy="24" r="24"/><circle class="e" cx="24" cy="24" r="23.5"/></g><g class="c" transform="translate(12.577 15.459)"><path class="a" d="M20.031,2.054A9.665,9.665,0,0,0,14.531,0L14.26.315a12.94,12.94,0,0,1,4.869,2.478A16.651,16.651,0,0,0,4.511,2.228c-.641.293-1.043.511-1.13.554A13.176,13.176,0,0,1,8.51.228L8.315,0a9.665,9.665,0,0,0-5.5,2.054A26.132,26.132,0,0,0,0,13.455a7.077,7.077,0,0,0,5.967,2.978s.717-.88,1.3-1.63a6.12,6.12,0,0,1-3.424-2.3c.293.2.761.467.8.489a14.229,14.229,0,0,0,12.206.685,10.991,10.991,0,0,0,2.25-1.152,6.206,6.206,0,0,1-3.543,2.326c.587.739,1.293,1.587,1.293,1.587a7.157,7.157,0,0,0,5.989-2.978,26.132,26.132,0,0,0-2.815-11.4M9.76,9.467a2.089,2.089,0,0,1-2,2.174,2.18,2.18,0,0,1,0-4.347h.033A2.076,2.076,0,0,1,9.76,9.369Zm4.978,1.826a2,2,0,0,1,.163-4,2.089,2.089,0,0,1,2,2.174,2.006,2.006,0,0,1-2.163,1.826" transform="translate(0 0)"/></g></svg>