<svg xmlns="http://www.w3.org/2000/svg" xmlns:xlink="http://www.w3.org/1999/xlink" width="85" height="85" viewBox="0 0 85 85"><defs><style>.a{fill:#060707;}.b{fill:#fff;}.c{clip-path:url(#c);}.d{filter:url(#a);}</style><filter id="a" x="0" y="0" width="85" height="85" filterUnits="userSpaceOnUse"><feOffset dy="5" input="SourceAlpha"/><feGaussianBlur stdDeviation="7.5" result="b"/><feFlood flood-opacity="0.078"/><feComposite operator="in" in2="b"/><feComposite in="SourceGraphic"/></filter><clipPath id="c"><rect class="a" width="22.846" height="16.436"/></clipPath></defs><g transform="translate(22.5 17.5)"><g class="d" transform="matrix(1, 0, 0, 1, -22.5, -17.5)"><circle class="b" cx="20" cy="20" r="20" transform="translate(22.5 17.5)"/></g><g class="c" transform="translate(8.577 11.459)"><path class="a" d="M20.031,2.054A9.665,9.665,0,0,0,14.531,0L14.26.315a12.94,12.94,0,0,1,4.869,2.478A16.651,16.651,0,0,0,4.511,2.228c-.641.293-1.043.511-1.13.554A13.176,13.176,0,0,1,8.51.228L8.315,0a9.665,9.665,0,0,0-5.5,2.054A26.132,26.132,0,0,0,0,13.455a7.077,7.077,0,0,0,5.967,2.978s.717-.88,1.3-1.63a6.12,6.12,0,0,1-3.424-2.3c.293.2.761.467.8.489a14.229,14.229,0,0,0,12.206.685,10.991,10.991,0,0,0,2.25-1.152,6.206,6.206,0,0,1-3.543,2.326c.587.739,1.293,1.587,1.293,1.587a7.157,7.157,0,0,0,5.989-2.978,26.132,26.132,0,0,0-2.815-11.4M9.76,9.467a2.089,2.089,0,0,1-2,2.174,2.18,2.18,0,0,1,0-4.347h.033A2.076,2.076,0,0,1,9.76,9.369Zm4.978,1.826a2,2,0,0,1,.163-4,2.089,2.089,0,0,1,2,2.174,2.006,2.006,0,0,1-2.163,1.826" transform="translate(0 0)"/></g></g></svg>