<svg xmlns="http://www.w3.org/2000/svg" width="70" height="59" viewBox="0 0 70 59"><defs><style>.a{fill:#fff;}.b{fill:#c4c4c4;}</style></defs><path class="a" d="M0,0H70a0,0,0,0,1,0,0V59a0,0,0,0,1,0,0H15A15,15,0,0,1,0,44V0A0,0,0,0,1,0,0Z"/><g transform="translate(23.473 17.973)"><path class="b" d="M14.764,9A5.764,5.764,0,1,1,9,14.764,5.77,5.77,0,0,1,14.764,9Zm0,9.606a3.842,3.842,0,1,0-3.842-3.842A3.847,3.847,0,0,0,14.764,18.606Z" transform="translate(-3.236 -3.236)"/><path class="b" d="M17.461,3.842a.961.961,0,0,1-.961-.961V.961a.961.961,0,0,1,1.921,0V2.882A.961.961,0,0,1,17.461,3.842Z" transform="translate(-5.933)"/><path class="b" d="M17.461,33.842a.961.961,0,0,1-.961-.961V30.961a.961.961,0,0,1,1.921,0v1.921A.961.961,0,0,1,17.461,33.842Z" transform="translate(-5.933 -10.788)"/><path class="b" d="M7.155,8.115a.958.958,0,0,1-.679-.281L5.111,6.47A.961.961,0,0,1,6.47,5.111L7.834,6.475a.961.961,0,0,1-.679,1.64Z" transform="translate(-1.737 -1.737)"/><path class="b" d="M28.365,29.325a.958.958,0,0,1-.679-.281L26.321,27.68a.961.961,0,0,1,1.359-1.359l1.364,1.364a.961.961,0,0,1-.679,1.64Z" transform="translate(-9.364 -9.364)"/><path class="b" d="M2.882,18.421H.961a.961.961,0,0,1,0-1.921H2.882a.961.961,0,0,1,0,1.921Z" transform="translate(0 -5.933)"/><path class="b" d="M32.882,18.421H30.961a.961.961,0,0,1,0-1.921h1.921a.961.961,0,1,1,0,1.921Z" transform="translate(-10.788 -5.933)"/><path class="b" d="M5.791,29.325a.961.961,0,0,1-.679-1.64l1.364-1.364A.961.961,0,0,1,7.834,27.68L6.47,29.044A.958.958,0,0,1,5.791,29.325Z" transform="translate(-1.737 -9.364)"/><path class="b" d="M27,8.115a.961.961,0,0,1-.679-1.64l1.364-1.364A.961.961,0,0,1,29.044,6.47L27.68,7.834A.958.958,0,0,1,27,8.115Z" transform="translate(-9.364 -1.737)"/></g></svg>