<svg xmlns="http://www.w3.org/2000/svg" xmlns:xlink="http://www.w3.org/1999/xlink" width="48" height="48" viewBox="0 0 48 48"><defs><style>.a{stroke:#fff;fill:url(#a);}.b{fill:#060707;}.c{stroke:none;}.d{fill:none;}</style><linearGradient id="a" x1="0.5" x2="0.5" y2="1" gradientUnits="objectBoundingBox"><stop offset="0" stop-color="#fceabb"/><stop offset="1" stop-color="#f8b500"/></linearGradient></defs><g class="a"><circle class="c" cx="24" cy="24" r="24"/><circle class="d" cx="24" cy="24" r="23.5"/></g><path class="b" d="M4.64,20.728H.342V6.889h4.3ZM2.489,5A2.5,2.5,0,1,1,4.977,2.489,2.51,2.51,0,0,1,2.489,5ZM20.723,20.728H16.435V13.991c0-1.605-.032-3.664-2.234-3.664-2.234,0-2.577,1.744-2.577,3.549v6.852H7.331V6.889h4.121V8.777h.06a4.515,4.515,0,0,1,4.066-2.235c4.349,0,5.149,2.864,5.149,6.584v7.6Z" transform="translate(14.636 12.636)"/></svg>