<svg xmlns="http://www.w3.org/2000/svg" width="48" height="48" viewBox="0 0 48 48"><defs><style>.a{fill:#fff;}.b{fill:#060707;}</style></defs><circle class="a" cx="24" cy="24" r="24"/><path class="b" d="M19.3,7.736c.014.191.014.382.014.573A12.461,12.461,0,0,1,6.772,20.856,12.462,12.462,0,0,1,0,18.876a9.122,9.122,0,0,0,1.065.055A8.831,8.831,0,0,0,6.54,17.047a4.418,4.418,0,0,1-4.123-3.058,5.561,5.561,0,0,0,.833.068,4.664,4.664,0,0,0,1.16-.15A4.41,4.41,0,0,1,.874,9.579V9.524a4.441,4.441,0,0,0,1.993.56A4.416,4.416,0,0,1,1.5,4.186,12.535,12.535,0,0,0,10.594,8.8a4.978,4.978,0,0,1-.109-1.01,4.414,4.414,0,0,1,7.632-3.017,8.682,8.682,0,0,0,2.8-1.065,4.4,4.4,0,0,1-1.939,2.43,8.84,8.84,0,0,0,2.539-.683A9.479,9.479,0,0,1,19.3,7.736Z" transform="translate(13.516 12.105)"/></svg>