<svg xmlns="http://www.w3.org/2000/svg" xmlns:xlink="http://www.w3.org/1999/xlink" width="85" height="85" viewBox="0 0 85 85"><defs><style>.a{fill:#fff;}.b{fill:#060707;}.c{filter:url(#a);}</style><filter id="a" x="0" y="0" width="85" height="85" filterUnits="userSpaceOnUse"><feOffset dy="5" input="SourceAlpha"/><feGaussianBlur stdDeviation="7.5" result="b"/><feFlood flood-opacity="0.078"/><feComposite operator="in" in2="b"/><feComposite in="SourceGraphic"/></filter></defs><g transform="translate(22.5 17.5)"><g class="c" transform="matrix(1, 0, 0, 1, -22.5, -17.5)"><circle class="a" cx="20" cy="20" r="20" transform="translate(22.5 17.5)"/></g><path class="b" d="M4.64,20.728H.342V6.889h4.3ZM2.489,5A2.5,2.5,0,1,1,4.977,2.489,2.51,2.51,0,0,1,2.489,5ZM20.723,20.728H16.435V13.991c0-1.605-.032-3.664-2.234-3.664-2.234,0-2.577,1.744-2.577,3.549v6.852H7.331V6.889h4.121V8.777h.06a4.515,4.515,0,0,1,4.066-2.235c4.349,0,5.149,2.864,5.149,6.584v7.6Z" transform="translate(9.637 9.636)"/></g></svg>