<svg xmlns="http://www.w3.org/2000/svg" xmlns:xlink="http://www.w3.org/1999/xlink" width="400" height="85" viewBox="0 0 400 85"><defs><style>.a{fill:none;}.b{fill:#fff;}.c{fill:#060707;}.d{filter:url(#c);}.e{filter:url(#a);}</style><filter id="a" x="0" y="0" width="85" height="85" filterUnits="userSpaceOnUse"><feOffset dy="5" input="SourceAlpha"/><feGaussianBlur stdDeviation="7.5" result="b"/><feFlood flood-opacity="0.078"/><feComposite operator="in" in2="b"/><feComposite in="SourceGraphic"/></filter><filter id="c" x="315" y="0" width="85" height="85" filterUnits="userSpaceOnUse"><feOffset dy="5" input="SourceAlpha"/><feGaussianBlur stdDeviation="7.5" result="d"/><feFlood flood-opacity="0.078"/><feComposite operator="in" in2="d"/><feComposite in="SourceGraphic"/></filter></defs><g transform="translate(12.5 6.5)"><rect class="a" width="375" height="60"/><g transform="translate(50 51) rotate(180)"><g class="e" transform="matrix(-1, 0, 0, -1, 62.5, 57.5)"><circle class="b" cx="20" cy="20" r="20" transform="translate(62.5 57.5) rotate(180)"/></g><path class="c" d="M22.3,13.28H11.2L15.5,9.161a1.716,1.716,0,0,0,0-2.345,1.534,1.534,0,0,0-2.241,0L6.092,13.767a1.58,1.58,0,0,0-.467,1.162v.021a1.58,1.58,0,0,0,.467,1.162l7.164,6.951a1.534,1.534,0,0,0,2.241,0,1.716,1.716,0,0,0,0-2.345L11.191,16.6h11.1a1.624,1.624,0,0,0,1.587-1.66A1.607,1.607,0,0,0,22.3,13.28Z" transform="translate(34.752 34.94) rotate(180)"/></g><g transform="translate(45)"><g class="d" transform="matrix(1, 0, 0, 1, -57.5, -6.5)"><circle class="b" cx="20" cy="20" r="20" transform="translate(337.5 17.5)"/></g><path class="c" d="M13.086,11.9a3.553,3.553,0,0,0-2.223.777l-3.81-2.381a3.589,3.589,0,0,0,0-1.55l3.81-2.381A3.562,3.562,0,1,0,9.6,4.344L5.791,6.725a3.569,3.569,0,1,0,0,5.584L9.6,14.69A3.569,3.569,0,1,0,13.086,11.9Z" transform="translate(290.063 21.483)"/></g></g></svg>