<svg xmlns="http://www.w3.org/2000/svg" xmlns:xlink="http://www.w3.org/1999/xlink" width="18.879" height="23.293" viewBox="0 0 18.879 23.293"><defs><style>.a{fill:#b18511;}.b{clip-path:url(#a);}.c{fill:url(#b);}.d{fill:#fac73f;}</style><clipPath id="a"><rect class="a" width="18.879" height="23.293"/></clipPath><linearGradient id="b" x1="0.5" x2="0.5" y2="1" gradientUnits="objectBoundingBox"><stop offset="0" stop-color="#fceabb"/><stop offset="1" stop-color="#f8b500"/></linearGradient></defs><g transform="translate(0 2)"><g class="b" transform="translate(0 -2)"><path class="c" d="M6.565,247.4l-1.143-2.079c-.3-.55-.608-1.1-.9-1.652a.237.237,0,0,0-.272-.149c-1.089.106-2.179.2-3.268.3-.311.028-.623.051-.978.079l3-5.653a8.03,8.03,0,0,0,6.438,3.124,8.159,8.159,0,0,0,6.459-3.1l2.981,5.616c-.337-.024-.624-.039-.91-.064-.762-.068-1.524-.142-2.286-.212-.334-.031-.67-.043-1-.1-.188-.03-.259.051-.334.191q-.938,1.732-1.883,3.461c-.037.069-.079.135-.139.239l-2.882-5.424L6.565,247.4" transform="translate(0 -224.117)"/><path class="d" d="M80.371,81.269l.494.6c.033-.189.058-.369.1-.544a.537.537,0,0,0-.071-.526.844.844,0,0,1-.073-.937l.348.659c.119-.28.24-.553.348-.832.015-.039-.038-.105-.061-.158a1,1,0,0,1,.076-.959,1.416,1.416,0,0,1,.21.912c.246-.093.422-.418.754-.218a.5.5,0,0,1-.444.267.561.561,0,0,0-.591.421,7.345,7.345,0,0,0-.247.775c.242-.14.374-.476.747-.361a.626.626,0,0,1-.448.383.486.486,0,0,0-.431.453,7.86,7.86,0,0,0-.076.848c.211-.189.275-.553.674-.51a.7.7,0,0,1-.378.473.5.5,0,0,0-.321.558c.032.265.058.531.119.806.153-.261.185-.611.577-.684a.858.858,0,0,1-.309.6.475.475,0,0,0-.174.6c.1.257.176.52.3.782.095-.3.043-.655.405-.836a.807.807,0,0,1-.141.647.538.538,0,0,0-.027.717c.148.214.278.44.451.657-.023-.346-.1-.694.257-.951a2.149,2.149,0,0,1-.051.677.622.622,0,0,0,.207.806c.062.052.134.091.249.167l-.233.2c-.046-.012-.066-.011-.072-.02a1.264,1.264,0,0,0-.888-.511,1.249,1.249,0,0,1-.754-.537,2.166,2.166,0,0,1,.939.206c-.161-.292-.292-.546-.441-.789-.03-.05-.127-.061-.2-.085a1.425,1.425,0,0,1-.834-.743l.041-.072.787.389c-.078-.282-.146-.553-.233-.817-.018-.055-.11-.089-.171-.126a1.422,1.422,0,0,1-.624-.85l.06-.069.659.5c-.083-.371.128-.75-.236-1.059a1.074,1.074,0,0,1-.345-.862l.074-.054" transform="translate(-75.758 -73.205)"/><path class="d" d="M217.7,81.265c-.118-.3-.221-.615-.36-.908a.456.456,0,0,0-.454-.251.55.55,0,0,1-.5-.265c.33-.2.512.1.757.229a1.538,1.538,0,0,1,.181-.895.8.8,0,0,1,.107.913.362.362,0,0,0,.007.366c.1.206.187.42.281.636l.341-.657.072.029a1.11,1.11,0,0,1-.169.978.494.494,0,0,0-.071.294c.027.234.084.465.131.708l.487-.6.074.041a.878.878,0,0,1-.252.758c-.391.325-.295.736-.312,1.162l.643-.5.06.064a1.276,1.276,0,0,1-.594.833.518.518,0,0,0-.277.386c-.039.19-.1.375-.154.58l.78-.389.047.074a1.329,1.329,0,0,1-.784.716.6.6,0,0,0-.4.363c-.076.17-.176.328-.275.509l.888-.222.028.081a1.386,1.386,0,0,1-.841.528.956.956,0,0,0-.721.418.281.281,0,0,1-.064.06.34.34,0,0,1-.062.026l-.184-.176c.1-.108.183-.21.279-.3a.533.533,0,0,0,.132-.631,2.182,2.182,0,0,1-.051-.746c.322.257.272.589.243.947.057-.074.12-.143.169-.221.1-.16.189-.329.3-.485a.486.486,0,0,0-.037-.64.888.888,0,0,1-.16-.677c.365.182.315.538.378.839l.073.006a9.833,9.833,0,0,0,.285-1.016c.019-.105-.107-.263-.2-.357a1.049,1.049,0,0,1-.316-.618c.386.088.438.417.542.7l.085-.019a9.217,9.217,0,0,0,.054-1.026c-.005-.108-.16-.237-.276-.307a.975.975,0,0,1-.417-.5c.408-.035.481.31.676.512a2.348,2.348,0,0,0-.149-1.081.577.577,0,0,0-.335-.211.792.792,0,0,1-.465-.39c.379-.115.515.211.727.381l.06-.057" transform="translate(-204.242 -73.774)"/><path class="c" d="M31.6,0a8.152,8.152,0,1,0,8.152,8.152A8.152,8.152,0,0,0,31.6,0m0,13.994a5.842,5.842,0,1,1,5.842-5.842A5.842,5.842,0,0,1,31.6,13.994" transform="translate(-22.157 1.052)"/><path class="d" d="M2.776-5.52V.117H1.534V-3.878q0-.155.008-.306a2.013,2.013,0,0,1,.041-.306l-1.34.343L.1-4.956,1.534-5.52Z" transform="translate(7.756 11.971)"/></g></g></svg>