<svg xmlns="http://www.w3.org/2000/svg" xmlns:xlink="http://www.w3.org/1999/xlink" width="208" height="63" viewBox="0 0 208 63"><defs><style>.a{fill:#fff;}.b{fill:#fa523f;}.c{fill:#d03ffa;}.d{filter:url(#c);}.e{filter:url(#a);}</style><filter id="a" x="0" y="0" width="63" height="63" filterUnits="userSpaceOnUse"><feOffset dy="3" input="SourceAlpha"/><feGaussianBlur stdDeviation="3" result="b"/><feFlood flood-opacity="0.161"/><feComposite operator="in" in2="b"/><feComposite in="SourceGraphic"/></filter><filter id="c" x="145" y="0" width="63" height="63" filterUnits="userSpaceOnUse"><feOffset dy="3" input="SourceAlpha"/><feGaussianBlur stdDeviation="3" result="d"/><feFlood flood-opacity="0.161"/><feComposite operator="in" in2="d"/><feComposite in="SourceGraphic"/></filter></defs><g transform="translate(-22 -563)"><g transform="translate(-1641.189 376)"><g class="e" transform="matrix(1, 0, 0, 1, 1663.19, 187)"><path class="a" d="M22.5,0A22.5,22.5,0,1,1,0,22.5,22.5,22.5,0,0,1,22.5,0Z" transform="translate(9 6)"/></g><path class="b" d="M14.133,1.928A11.562,11.562,0,1,0,25.695,13.49,11.562,11.562,0,0,0,14.133,1.928Zm0,20.956a9.394,9.394,0,1,1,9.394-9.394,9.394,9.394,0,0,1-9.394,9.394ZM17.746,7.709l-3.613,3.613L10.52,7.709,8.352,9.877l3.613,3.613L8.352,17.1l2.168,2.168,3.613-3.613,3.613,3.613L19.914,17.1,16.3,13.49l3.613-3.613Z" transform="translate(1680.557 202.01)"/></g><g transform="translate(-1496.189 376)"><g class="d" transform="matrix(1, 0, 0, 1, 1518.19, 187)"><path class="a" d="M22.5,0A22.5,22.5,0,1,1,0,22.5,22.5,22.5,0,0,1,22.5,0Z" transform="translate(154 6)"/></g><path class="c" d="M9.552,29.412h.468L18.276,17.2q.162-.324-.18-.324H14.688l3.588-6.54c.108-.216.024-.324-.24-.324H13.464a.436.436,0,0,0-.348.216L9.78,19.1c-.024.216.048.324.228.324h3.3Zm10.2-7.6h.324l6.264-9.2a.273.273,0,0,0,.048-.24c-.024-.06-.1-.084-.2-.084h-2.52L26.28,7.452q.216-.36-.216-.36H22.776a.387.387,0,0,0-.36.228L19.92,13.9a.259.259,0,0,0,.012.252.267.267,0,0,0,.228.084h2.448Z" transform="translate(1676.714 198.248)"/></g></g></svg>