<svg xmlns="http://www.w3.org/2000/svg" xmlns:xlink="http://www.w3.org/1999/xlink" width="23.742" height="29.293" viewBox="0 0 23.742 29.293"><defs><style>.a{fill:#b18511;}.b{clip-path:url(#a);}.c{fill:url(#b);}.d{fill:#fac73f;}</style><clipPath id="a"><rect class="a" width="23.742" height="29.293"/></clipPath><linearGradient id="b" x1="0.5" x2="0.5" y2="1" gradientUnits="objectBoundingBox"><stop offset="0" stop-color="#fceabb"/><stop offset="1" stop-color="#f8b500"/></linearGradient></defs><g transform="translate(0 2)"><g class="b" transform="translate(0 -2)"><path class="c" d="M8.256,249.762l-1.438-2.614c-.38-.692-.764-1.381-1.136-2.077a.3.3,0,0,0-.342-.188c-1.369.134-2.74.257-4.11.381-.392.035-.784.064-1.23.1l3.774-7.109a10.1,10.1,0,0,0,8.1,3.928,10.261,10.261,0,0,0,8.123-3.9l3.749,7.063c-.424-.03-.784-.049-1.144-.081-.958-.086-1.916-.178-2.874-.267-.42-.039-.843-.054-1.258-.12-.236-.038-.325.064-.421.241q-1.179,2.179-2.368,4.352c-.047.086-.1.17-.175.3l-3.624-6.822-3.621,6.816" transform="translate(0 -220.475)"/><path class="d" d="M80.426,81.963l.622.757c.042-.238.073-.464.124-.685a.676.676,0,0,0-.089-.662,1.061,1.061,0,0,1-.092-1.179l.438.828c.15-.352.3-.7.437-1.047.019-.049-.048-.132-.076-.2a1.259,1.259,0,0,1,.1-1.206,1.781,1.781,0,0,1,.265,1.147c.309-.117.53-.526.949-.274a.625.625,0,0,1-.559.335.705.705,0,0,0-.744.53,9.236,9.236,0,0,0-.31.974c.3-.176.471-.6.939-.454a.788.788,0,0,1-.563.482.611.611,0,0,0-.542.57,9.883,9.883,0,0,0-.1,1.066c.266-.238.346-.7.847-.641a.873.873,0,0,1-.475.6.623.623,0,0,0-.4.7c.041.333.073.667.149,1.013.193-.329.232-.768.726-.86a1.079,1.079,0,0,1-.388.752.6.6,0,0,0-.219.752c.121.323.221.654.371.984.119-.376.054-.824.509-1.051a1.014,1.014,0,0,1-.177.814.676.676,0,0,0-.034.9c.186.269.349.554.568.826-.029-.435-.13-.872.323-1.2a2.7,2.7,0,0,1-.065.851.783.783,0,0,0,.261,1.014c.078.065.169.114.313.21l-.293.257c-.058-.016-.083-.014-.091-.026A1.59,1.59,0,0,0,82.03,88.2a1.571,1.571,0,0,1-.948-.675,2.724,2.724,0,0,1,1.18.259c-.2-.367-.367-.687-.555-.992-.038-.062-.16-.077-.245-.106a1.792,1.792,0,0,1-1.049-.935l.051-.091.99.489c-.1-.354-.183-.7-.294-1.028-.023-.069-.138-.112-.216-.158A1.788,1.788,0,0,1,80.16,83.9l.075-.086.829.634c-.1-.466.161-.943-.3-1.331a1.351,1.351,0,0,1-.434-1.083l.092-.068" transform="translate(-74.624 -71.822)"/><path class="d" d="M218.109,81.8c-.149-.382-.278-.773-.453-1.142a.573.573,0,0,0-.571-.316.692.692,0,0,1-.632-.333c.416-.248.644.125.952.288a1.934,1.934,0,0,1,.228-1.125,1,1,0,0,1,.134,1.149.455.455,0,0,0,.008.46c.128.259.235.528.353.8l.429-.827.09.037a1.4,1.4,0,0,1-.212,1.23.621.621,0,0,0-.089.369c.034.294.105.584.164.891l.612-.757.093.052a1.1,1.1,0,0,1-.316.954c-.491.409-.371.926-.392,1.461l.808-.623.075.08a1.6,1.6,0,0,1-.747,1.048.652.652,0,0,0-.348.485c-.049.239-.124.472-.193.73l.981-.489.06.093a1.671,1.671,0,0,1-.986.9.75.75,0,0,0-.5.456c-.095.213-.221.413-.346.64l1.117-.279.035.1a1.743,1.743,0,0,1-1.057.664,1.2,1.2,0,0,0-.906.526.352.352,0,0,1-.08.075.429.429,0,0,1-.078.033l-.232-.222c.127-.136.231-.264.351-.373a.671.671,0,0,0,.166-.793,2.744,2.744,0,0,1-.065-.938c.4.323.342.74.305,1.19.071-.092.15-.18.213-.278.128-.2.238-.414.374-.61a.612.612,0,0,0-.046-.8,1.117,1.117,0,0,1-.2-.852c.459.229.4.676.475,1.055l.092.007a12.368,12.368,0,0,0,.359-1.278c.024-.132-.135-.331-.257-.45a1.319,1.319,0,0,1-.4-.777c.485.111.551.524.681.882l.107-.023a11.582,11.582,0,0,0,.068-1.29c-.006-.136-.2-.3-.347-.386a1.226,1.226,0,0,1-.525-.625c.513-.045.605.39.85.644a2.953,2.953,0,0,0-.188-1.36.726.726,0,0,0-.422-.265,1,1,0,0,1-.585-.491c.476-.144.647.266.914.48l.076-.071" transform="translate(-201.185 -72.383)"/><path class="c" d="M33.7,0A10.252,10.252,0,1,0,43.948,10.251,10.252,10.252,0,0,0,33.7,0m0,17.6a7.347,7.347,0,1,1,7.347-7.347A7.347,7.347,0,0,1,33.7,17.6" transform="translate(-21.826 1.323)"/><path class="d" d="M3.466-5.52V1.569H1.9V-3.455q0-.2.01-.385a2.532,2.532,0,0,1,.051-.385L.281-3.794.1-4.811,1.9-5.52Z" transform="translate(9.779 13.633)"/></g></g></svg>