<svg xmlns="http://www.w3.org/2000/svg" width="335" height="24.419" viewBox="0 0 335 24.419"><defs><style>.a{fill:#fac73f;}.b{fill:#bdc3c7;}</style></defs><g transform="translate(-650.789 -1456.814)"><path class="a" d="M12.829.849,9.715,7.162,2.748,8.178a1.527,1.527,0,0,0-.844,2.6l5.041,4.912L5.752,22.632a1.525,1.525,0,0,0,2.213,1.607L14.2,20.963l6.233,3.276a1.526,1.526,0,0,0,2.213-1.607l-1.192-6.938,5.041-4.912a1.527,1.527,0,0,0-.844-2.6L18.68,7.162,15.566.849a1.527,1.527,0,0,0-2.737,0Z" transform="translate(958.835 1456.814)"/><path class="a" d="M12.829.849,9.715,7.162,2.748,8.178a1.527,1.527,0,0,0-.844,2.6l5.041,4.912L5.752,22.632a1.525,1.525,0,0,0,2.213,1.607L14.2,20.963l6.233,3.276a1.526,1.526,0,0,0,2.213-1.607l-1.192-6.938,5.041-4.912a1.527,1.527,0,0,0-.844-2.6L18.68,7.162,15.566.849a1.527,1.527,0,0,0-2.737,0Z" transform="translate(881.463 1456.814)"/><path class="a" d="M12.829.849,9.715,7.162,2.748,8.178a1.527,1.527,0,0,0-.844,2.6l5.041,4.912L5.752,22.632a1.525,1.525,0,0,0,2.213,1.607L14.2,20.963l6.233,3.276a1.526,1.526,0,0,0,2.213-1.607l-1.192-6.938,5.041-4.912a1.527,1.527,0,0,0-.844-2.6L18.68,7.162,15.566.849a1.527,1.527,0,0,0-2.737,0Z" transform="translate(804.091 1456.814)"/><path class="a" d="M12.829.849,9.715,7.162,2.748,8.178a1.527,1.527,0,0,0-.844,2.6l5.041,4.912L5.752,22.632a1.525,1.525,0,0,0,2.213,1.607L14.2,20.963l6.233,3.276a1.526,1.526,0,0,0,2.213-1.607l-1.192-6.938,5.041-4.912a1.527,1.527,0,0,0-.844-2.6L18.68,7.162,15.566.849a1.527,1.527,0,0,0-2.737,0Z" transform="translate(726.72 1456.814)"/><path class="b" d="M12.829.849,9.715,7.162,2.748,8.178a1.527,1.527,0,0,0-.844,2.6l5.041,4.912L5.752,22.632a1.525,1.525,0,0,0,2.213,1.607L14.2,20.963l6.233,3.276a1.526,1.526,0,0,0,2.213-1.607l-1.192-6.938,5.041-4.912a1.527,1.527,0,0,0-.844-2.6L18.68,7.162,15.566.849a1.527,1.527,0,0,0-2.737,0Z" transform="translate(649.348 1456.814)"/></g></svg>