<svg xmlns="http://www.w3.org/2000/svg" xmlns:xlink="http://www.w3.org/1999/xlink" width="63" height="63" viewBox="0 0 63 63"><defs><style>.a{fill:#fff;}.b{fill:#fa523f;}.c{filter:url(#a);}</style><filter id="a" x="0" y="0" width="63" height="63" filterUnits="userSpaceOnUse"><feOffset dy="3" input="SourceAlpha"/><feGaussianBlur stdDeviation="3" result="b"/><feFlood flood-opacity="0.161"/><feComposite operator="in" in2="b"/><feComposite in="SourceGraphic"/></filter></defs><g transform="translate(-1663.189 -187)"><g class="c" transform="matrix(1, 0, 0, 1, 1663.19, 187)"><path class="a" d="M22.5,0A22.5,22.5,0,1,1,0,22.5,22.5,22.5,0,0,1,22.5,0Z" transform="translate(9 6)"/></g><path class="b" d="M14.133,1.928A11.562,11.562,0,1,0,25.695,13.49,11.562,11.562,0,0,0,14.133,1.928Zm0,20.956a9.394,9.394,0,1,1,9.394-9.394,9.394,9.394,0,0,1-9.394,9.394ZM17.746,7.709l-3.613,3.613L10.52,7.709,8.352,9.877l3.613,3.613L8.352,17.1l2.168,2.168,3.613-3.613,3.613,3.613L19.914,17.1,16.3,13.49l3.613-3.613Z" transform="translate(1680.557 202.01)"/></g></svg>