<svg xmlns="http://www.w3.org/2000/svg" width="19.017" height="19.038" viewBox="0 0 19.017 19.038"><defs><style>.a{fill:#0f1114;stroke:#060707;stroke-linecap:square;stroke-linejoin:round;stroke-width:0.5px;}</style></defs><g transform="translate(-531.065 -394.188)"><path class="a" d="M18.163,4.964h1.392A4.983,4.983,0,0,0,14.61,0V1.392a3.631,3.631,0,0,1,3.553,3.572" transform="translate(530.276 394.438)"/><path class="a" d="M1.392,14.63H0a5,5,0,0,0,4.954,4.964V18.2A3.645,3.645,0,0,1,1.392,14.63" transform="translate(531.331 393.381)"/><path class="a" d="M0,4.964H1.392A3.639,3.639,0,0,1,4.954,1.392V0A5,5,0,0,0,0,4.964" transform="translate(531.331 394.438)"/><path class="a" d="M14.61,18.2v1.392a4.989,4.989,0,0,0,4.945-4.964H18.163A3.637,3.637,0,0,1,14.61,18.2" transform="translate(530.276 393.381)"/></g></svg>