<svg xmlns="http://www.w3.org/2000/svg" xmlns:xlink="http://www.w3.org/1999/xlink" width="63" height="63" viewBox="0 0 63 63"><defs><style>.a{fill:#fff;}.b{fill:#d03ffa;}.c{filter:url(#a);}</style><filter id="a" x="0" y="0" width="63" height="63" filterUnits="userSpaceOnUse"><feOffset dy="3" input="SourceAlpha"/><feGaussianBlur stdDeviation="3" result="b"/><feFlood flood-opacity="0.161"/><feComposite operator="in" in2="b"/><feComposite in="SourceGraphic"/></filter></defs><g transform="translate(-1663.189 -187)"><g class="c" transform="matrix(1, 0, 0, 1, 1663.19, 187)"><path class="a" d="M22.5,0A22.5,22.5,0,1,1,0,22.5,22.5,22.5,0,0,1,22.5,0Z" transform="translate(9 6)"/></g><path class="b" d="M9.552,29.412h.468L18.276,17.2q.162-.324-.18-.324H14.688l3.588-6.54c.108-.216.024-.324-.24-.324H13.464a.436.436,0,0,0-.348.216L9.78,19.1c-.024.216.048.324.228.324h3.3Zm10.2-7.6h.324l6.264-9.2a.273.273,0,0,0,.048-.24c-.024-.06-.1-.084-.2-.084h-2.52L26.28,7.452q.216-.36-.216-.36H22.776a.387.387,0,0,0-.36.228L19.92,13.9a.259.259,0,0,0,.012.252.267.267,0,0,0,.228.084h2.448Z" transform="translate(1676.714 198.248)"/></g></svg>