<svg xmlns="http://www.w3.org/2000/svg" width="75.211" height="10.731" viewBox="0 0 75.211 10.731"><defs><style>.a{fill:#fac73f;}.b{fill:#bdc3c7;}</style></defs><g transform="translate(0)"><path class="a" d="M6.446.372,5.077,3.147l-3.062.446a.671.671,0,0,0-.371,1.144L3.86,6.9,3.336,9.945a.67.67,0,0,0,.972.706l2.739-1.44,2.739,1.44a.671.671,0,0,0,.972-.706L10.234,6.9l2.215-2.158a.671.671,0,0,0-.371-1.144L9.017,3.147,7.648.372a.671.671,0,0,0-1.2,0Z" transform="translate(62.559 0.001)"/><path class="a" d="M6.446.372,5.077,3.147l-3.062.446a.671.671,0,0,0-.371,1.144L3.86,6.9,3.336,9.945a.67.67,0,0,0,.972.706l2.739-1.44,2.739,1.44a.671.671,0,0,0,.972-.706L10.234,6.9l2.215-2.158a.671.671,0,0,0-.371-1.144L9.017,3.147,7.648.372a.671.671,0,0,0-1.2,0Z" transform="translate(46.559 0.001)"/><path class="a" d="M6.446.372,5.077,3.147l-3.062.446a.671.671,0,0,0-.371,1.144L3.86,6.9,3.336,9.945a.67.67,0,0,0,.972.706l2.739-1.44,2.739,1.44a.671.671,0,0,0,.972-.706L10.234,6.9l2.215-2.158a.671.671,0,0,0-.371-1.144L9.017,3.147,7.648.372a.671.671,0,0,0-1.2,0Z" transform="translate(30.559 0.001)"/><path class="a" d="M6.446.372,5.077,3.147l-3.062.446a.671.671,0,0,0-.371,1.144L3.86,6.9,3.336,9.945a.67.67,0,0,0,.972.706l2.739-1.44,2.739,1.44a.671.671,0,0,0,.972-.706L10.234,6.9l2.215-2.158a.671.671,0,0,0-.371-1.144L9.017,3.147,7.648.372a.671.671,0,0,0-1.2,0Z" transform="translate(14.559 0.001)"/><path class="b" d="M6.446.372,5.077,3.147l-3.062.446a.671.671,0,0,0-.371,1.144L3.86,6.9,3.336,9.945a.67.67,0,0,0,.972.706l2.739-1.44,2.739,1.44a.671.671,0,0,0,.972-.706L10.234,6.9l2.215-2.158a.671.671,0,0,0-.371-1.144L9.017,3.147,7.648.372a.671.671,0,0,0-1.2,0Z" transform="translate(-1.441 0.001)"/></g></svg>