<svg xmlns="http://www.w3.org/2000/svg" xmlns:xlink="http://www.w3.org/1999/xlink" width="48" height="48" viewBox="0 0 48 48"><defs><style>.a{fill:#fff;}.b{fill:#060707;}.c{filter:url(#a);}</style><filter id="a" x="0" y="0" width="48" height="48" filterUnits="userSpaceOnUse"><feOffset dy="3" input="SourceAlpha"/><feGaussianBlur stdDeviation="3" result="b"/><feFlood flood-opacity="0.161"/><feComposite operator="in" in2="b"/><feComposite in="SourceGraphic"/></filter></defs><g transform="translate(-1663 -187)"><g class="c" transform="matrix(1, 0, 0, 1, 1663, 187)"><path class="a" d="M-17576-4623a15,15,0,0,1,15,15,15,15,0,0,1-15,15,15,15,0,0,1-15-15A15,15,0,0,1-17576-4623Z" transform="translate(17600 4629)"/></g><path class="b" d="M16.59,8.59,12,13.17,7.41,8.59,6,10l6,6,6-6Z" transform="translate(1675.705 220.295) rotate(-90)"/></g></svg>