<svg xmlns="http://www.w3.org/2000/svg" width="26.301" height="26.301" viewBox="0 0 26.301 26.301"><defs><style>.a{fill:#fff;}</style></defs><g transform="translate(1.623 1.623)"><path class="a" d="M14.764,9A5.764,5.764,0,1,1,9,14.764,5.77,5.77,0,0,1,14.764,9Zm0,9.606a3.842,3.842,0,1,0-3.842-3.842A3.847,3.847,0,0,0,14.764,18.606Z" transform="translate(-3.236 -3.236)"/><path class="a" d="M17.6,4.383a1.1,1.1,0,0,1-1.1-1.1V1.1a1.1,1.1,0,1,1,2.192,0V3.288A1.1,1.1,0,0,1,17.6,4.383Z" transform="translate(-6.068 -1.623)"/><path class="a" d="M17.6,34.383a1.1,1.1,0,0,1-1.1-1.1V31.1a1.1,1.1,0,1,1,2.192,0v2.192A1.1,1.1,0,0,1,17.6,34.383Z" transform="translate(-6.068 -9.706)"/><path class="a" d="M7.482,8.578a1.092,1.092,0,0,1-.775-.321L5.151,6.7A1.1,1.1,0,1,1,6.7,5.151L8.257,6.707a1.1,1.1,0,0,1-.775,1.871Z" transform="translate(-2.924 -2.924)"/><path class="a" d="M28.692,29.788a1.092,1.092,0,0,1-.775-.321l-1.556-1.556a1.1,1.1,0,0,1,1.55-1.55l1.556,1.556a1.1,1.1,0,0,1-.775,1.871Z" transform="translate(-8.64 -8.639)"/><path class="a" d="M3.288,18.692H1.1a1.1,1.1,0,0,1,0-2.192H3.288a1.1,1.1,0,0,1,0,2.192Z" transform="translate(-1.623 -6.069)"/><path class="a" d="M33.288,18.692H31.1a1.1,1.1,0,0,1,0-2.192h2.192a1.1,1.1,0,0,1,0,2.192Z" transform="translate(-9.706 -6.069)"/><path class="a" d="M5.926,29.788a1.1,1.1,0,0,1-.775-1.871l1.556-1.556a1.1,1.1,0,0,1,1.55,1.55L6.7,29.467A1.092,1.092,0,0,1,5.926,29.788Z" transform="translate(-2.924 -8.639)"/><path class="a" d="M27.136,8.578a1.1,1.1,0,0,1-.775-1.871l1.556-1.556a1.1,1.1,0,0,1,1.55,1.55L27.911,8.257A1.092,1.092,0,0,1,27.136,8.578Z" transform="translate(-8.64 -2.924)"/></g></svg>