<svg xmlns="http://www.w3.org/2000/svg" width="27.559" height="15.748" viewBox="0 0 27.559 15.748"><defs><style>.a{fill:#fff;}</style></defs><g transform="translate(-2.25 -9)"><path class="a" d="M30.8,10.8a1.051,1.051,0,0,0-.572.166l-5.321,3.359a.526.526,0,0,0-.246.443v4.675a.526.526,0,0,0,.246.443l5.321,3.359a1.106,1.106,0,0,0,.572.166h1.28a.524.524,0,0,0,.529-.523V11.323a.528.528,0,0,0-.529-.523Z" transform="translate(-2.805 -0.225)"/><path class="a" d="M17.106,24.748H5.418A3.178,3.178,0,0,1,2.25,21.586V12.162A3.173,3.173,0,0,1,5.412,9H17.1a3.173,3.173,0,0,1,3.162,3.162V21.58A3.165,3.165,0,0,1,17.106,24.748Z"/></g></svg>