<svg xmlns="http://www.w3.org/2000/svg" width="22.663" height="18.538" viewBox="0 0 22.663 18.538"><defs><style>.a{fill:#060707;}</style></defs><path class="a" d="M22.088,4.5H3.558A2.062,2.062,0,0,0,1.5,6.562V9.648H3.558V6.562H22.088V20.975h-7.2v2.062H22.1a2.062,2.062,0,0,0,2.062-2.062V6.562A2.062,2.062,0,0,0,22.1,4.5ZM1.5,19.928v3.086H4.581A3.085,3.085,0,0,0,1.5,19.928Zm0-4.117v2.061a5.148,5.148,0,0,1,5.148,5.149v.016H8.706a7.2,7.2,0,0,0-7.193-7.21H1.5Zm0-4.116v2.062a9.264,9.264,0,0,1,9.273,9.257v.024h2.062A11.368,11.368,0,0,0,1.5,11.71Z" transform="translate(-1.496 -4.5)"/></svg>