<svg xmlns="http://www.w3.org/2000/svg" width="20.625" height="16.87" viewBox="0 0 20.625 16.87"><defs><style>.a{fill:#060707;}</style></defs><path class="a" d="M20.236,4.5H3.373A1.877,1.877,0,0,0,1.5,6.377V9.185H3.373V6.377H20.236V19.494H13.681V21.37h6.562a1.877,1.877,0,0,0,1.877-1.877V6.377A1.877,1.877,0,0,0,20.243,4.5ZM1.5,18.54v2.808H4.3A2.808,2.808,0,0,0,1.5,18.54Zm0-3.747V16.67a4.685,4.685,0,0,1,4.685,4.686v.014H8.058a6.554,6.554,0,0,0-6.546-6.562H1.5Zm0-3.746v1.877a8.43,8.43,0,0,1,8.439,8.424v.022h1.877A10.345,10.345,0,0,0,1.5,11.062Z" transform="translate(-1.496 -4.5)"/></svg>