<svg xmlns="http://www.w3.org/2000/svg" width="25.556" height="24.97" viewBox="0 0 25.556 24.97"><defs><style>.a{fill:#0f1114;fill-rule:evenodd;}</style></defs><g transform="translate(0 0)"><path class="a" d="M6.975,21.661a1.654,1.654,0,1,1-1.654,1.654A1.656,1.656,0,0,1,6.975,21.661Zm14.414,0a1.654,1.654,0,1,1-1.654,1.654A1.656,1.656,0,0,1,21.39,21.661ZM1.512.012l2.658.46a.962.962,0,0,1,.791.865l.3,3.579H23.634l.016,0a2.674,2.674,0,0,1,2.268,3.028l-1.213,8.38a3.274,3.274,0,0,1-3.224,2.8H7.526a3.273,3.273,0,0,1-3.244-2.994L3.111,2.234,1.186,1.9A.961.961,0,0,1,.4.793.97.97,0,0,1,1.512.012ZM6.121,6.833h-.7L6.192,16a1.332,1.332,0,0,0,1.337,1.234h13.95a1.348,1.348,0,0,0,1.329-1.154L24.022,7.7a.75.75,0,0,0-.143-.56.741.741,0,0,0-.5-.3H6.121ZM19.427,9.64a.958.958,0,1,1,0,1.917H15.884a.958.958,0,1,1,0-1.917Z" transform="translate(-0.39 0)"/></g></svg>