<svg xmlns="http://www.w3.org/2000/svg" width="17.039" height="20.847" viewBox="0 0 17.039 20.847"><defs><style>.a{fill-rule:evenodd;}</style></defs><g transform="translate(-3 -2)"><g transform="translate(3 2)"><path class="a" d="M11.7,0c3.392,0,5.338,1.679,5.338,4.6V19.14A1.7,1.7,0,0,1,14.5,20.62l-5.96-3.367L2.53,20.627A1.7,1.7,0,0,1,0,19.145V4.421C0,1.611,1.947,0,5.342,0Zm0,1.5H5.342C2.793,1.5,1.5,2.482,1.5,4.421V19.145a.189.189,0,0,0,.1.171.187.187,0,0,0,.2,0l6.382-3.58a.753.753,0,0,1,.736,0l6.327,3.574a.187.187,0,0,0,.2,0,.191.191,0,0,0,.1-.172V4.49C15.531,3.629,15.364,1.5,11.7,1.5Zm.439,5.228a.75.75,0,0,1,0,1.5H4.822a.75.75,0,0,1,0-1.5Z"/></g></g></svg>