<svg xmlns="http://www.w3.org/2000/svg" width="29.461" height="29.461" viewBox="0 0 29.461 29.461"><defs><style>.a{fill:#060707;fill-rule:evenodd;}</style></defs><g transform="translate(-2 -2)"><g transform="translate(2 2)"><path class="a" d="M21.115,0c4.992,0,8.346,3.5,8.346,8.715V20.746c0,5.212-3.354,8.715-8.348,8.715H8.345C3.353,29.461,0,25.958,0,20.746V8.715C0,3.5,3.353,0,8.345,0Zm0,2.21H8.345c-3.727,0-6.135,2.553-6.135,6.5V20.746c0,3.952,2.408,6.5,6.135,6.5H21.113c3.728,0,6.138-2.553,6.138-6.5V8.715C27.251,4.762,24.841,2.21,21.115,2.21ZM11.977,10.4l2.751,2.751,2.749-2.748a1.1,1.1,0,1,1,1.561,1.561l-2.749,2.748,2.752,2.754a1.1,1.1,0,1,1-1.561,1.561l-2.752-2.754-2.748,2.75a1.1,1.1,0,1,1-1.561-1.561l2.748-2.75-2.751-2.751A1.1,1.1,0,1,1,11.977,10.4Z"/></g></g></svg>