<svg xmlns="http://www.w3.org/2000/svg" width="16.848" height="22.32" viewBox="0 0 16.848 22.32"><defs><style>.a{fill:#060707;}</style></defs><path class="a" d="M9.552,29.412h.468L18.276,17.2q.162-.324-.18-.324H14.688l3.588-6.54c.108-.216.024-.324-.24-.324H13.464a.436.436,0,0,0-.348.216L9.78,19.1c-.024.216.048.324.228.324h3.3Zm10.2-7.6h.324l6.264-9.2a.273.273,0,0,0,.048-.24c-.024-.06-.1-.084-.2-.084h-2.52L26.28,7.452q.216-.36-.216-.36H22.776a.387.387,0,0,0-.36.228L19.92,13.9a.259.259,0,0,0,.012.252.267.267,0,0,0,.228.084h2.448Z" transform="translate(-9.552 -7.092)"/></svg>