<svg xmlns="http://www.w3.org/2000/svg" width="22.916" height="24.803" viewBox="0 0 22.916 24.803"><defs><style>.a{fill:#231f20;fill-rule:evenodd;}</style></defs><g transform="translate(25.916 26.803) rotate(180)"><g transform="translate(3 2)"><path class="a" d="M17.428,0a5.5,5.5,0,0,1,5.488,5.488V19.3a5.508,5.508,0,0,1-5.5,5.5H11.356A5.494,5.494,0,0,1,5.87,19.315V18.147a.93.93,0,1,1,1.86,0v1.168a3.632,3.632,0,0,0,3.626,3.627h6.058A3.644,3.644,0,0,0,21.055,19.3V5.488A3.633,3.633,0,0,0,17.428,1.86H11.37A3.643,3.643,0,0,0,7.73,5.5V6.656a.93.93,0,0,1-1.86,0V5.5A5.506,5.506,0,0,1,11.37,0Zm-4.54,8.127,3.632,3.617a.929.929,0,0,1,.082.094l-.082-.095a.914.914,0,0,1,.13.161c.007.014.016.029.024.043a.562.562,0,0,1,.037.07c.006.017.013.034.02.051a.566.566,0,0,1,.026.072c0,.019.009.039.014.058a.511.511,0,0,1,.015.071c0,.011,0,.022,0,.034a.652.652,0,0,1,.007.1l-.009.1v.034l.011-.132a.927.927,0,0,1-.022.2c-.006.02-.011.039-.016.058a.566.566,0,0,1-.023.073c-.008.017-.015.034-.023.051a.544.544,0,0,1-.034.071l-.027.042a.56.56,0,0,1-.046.068l-.033.039a.579.579,0,0,1-.049.054l-3.632,3.615a.93.93,0,0,1-1.312-1.317l2.035-2.026H.93a.93.93,0,1,1,0-1.86H13.611L11.576,9.444a.93.93,0,0,1,1.312-1.317Z" transform="translate(0)"/></g></g></svg>