<svg xmlns="http://www.w3.org/2000/svg" width="16" height="16" viewBox="0 0 16 16"><defs><style>.a{fill:#fac73f;}</style></defs><path class="a" d="M422,1571.745l1.06,2.672a7.969,7.969,0,0,0,1.03-.4l-.9-2.476a5.018,5.018,0,0,1-1.193.209m-1.7,3.032c.114.005.227.008.341.008.259,0,.512-.014.764-.036l.007-3.009a5.03,5.03,0,0,1-1.2-.227Zm3.572-3.5,1.653,1.859a7.9,7.9,0,0,0,.83-.731l-1.475-1.763a5.075,5.075,0,0,1-1.007.635m-6.7,2.728a8.056,8.056,0,0,0,1.493.54l1.068-3.21a5.055,5.055,0,0,1-1.282-.817Zm8.321-3.953,1.916,1.036a8.113,8.113,0,0,0,.531-.97l-1.783-1.034a4.933,4.933,0,0,1-.664.968m1.015-1.824,1.971.29a7.953,7.953,0,0,0,.163-1.093l-1.93-.344a4.868,4.868,0,0,1-.2,1.146m-.122-3.227a4.973,4.973,0,0,1,.29,1.131l1.921-.395a8.13,8.13,0,0,0-.219-1.083l-1.991.345Zm-1.148-1.745a5.012,5.012,0,0,1,.738.923l1.78-1.095a7.83,7.83,0,0,0-.58-.94l-1.936,1.111Zm-1.7-1.1a4.969,4.969,0,0,1,1.061.565l1.458-1.839a7.953,7.953,0,0,0-.867-.686l-1.653,1.961Zm-8.625-.965,2.518,2.833-3.3-1.911a7.959,7.959,0,0,0-.8,1.371l3.343,1.8-3.759-.67a7.88,7.88,0,0,0-.275,1.562l3.76.555-3.76.655a7.88,7.88,0,0,0,.275,1.563l3.724-.764-3.309,1.9a7.94,7.94,0,0,0,.8,1.371l3.233-1.987-2.454,2.91a8.013,8.013,0,0,0,1.218,1.018l2.3-2.9a4.944,4.944,0,0,1-1.671-3.709,5.008,5.008,0,0,1,1.745-3.775l-2.376-2.84a7.991,7.991,0,0,0-1.218,1.017m6.726.634c.035,0,.068,0,.1,0a4.981,4.981,0,0,1,1.116.127l.85-2.557a8.1,8.1,0,0,0-1.05-.351l-1.02,2.782Zm-4.464-2.252,1.356,3.42a4.967,4.967,0,0,1,1.285-.785l-1.148-3.174a7.994,7.994,0,0,0-1.493.54m2.679-.746.094,3.329a4.971,4.971,0,0,1,1.488-.323l.007-3a7.976,7.976,0,0,0-.8-.04,7.765,7.765,0,0,0-.789.04" transform="translate(-412.638 -1558.786)"/></svg>