<svg xmlns="http://www.w3.org/2000/svg" xmlns:xlink="http://www.w3.org/1999/xlink" width="1920" height="622" viewBox="0 0 1920 622"><defs><style>.a{fill:#fff;}.b{clip-path:url(#a);}.c{stroke:#fff;fill:url(#b);}.d{fill:url(#c);}.e{stroke:none;}.f{fill:none;}</style><clipPath id="a"><rect class="a" width="1920" height="622" transform="translate(72)"/></clipPath><linearGradient id="b" x1="0.5" x2="0.5" y2="1" gradientUnits="objectBoundingBox"><stop offset="0" stop-color="#fceabb"/><stop offset="1" stop-color="#f8b500"/></linearGradient><linearGradient id="c" x1="0.863" y1="0.158" x2="0.139" y2="0.843" gradientUnits="objectBoundingBox"><stop offset="0" stop-color="#27d182"/><stop offset="0.51" stop-color="#fac73f"/><stop offset="1" stop-color="#c2992a"/></linearGradient></defs><g class="b" transform="translate(-72)"><g transform="translate(72 335)"><g class="c" transform="translate(178.443 30.837) rotate(34)"><circle class="e" cx="343" cy="343" r="343"/><circle class="f" cx="343" cy="343" r="342.5"/></g></g><g transform="translate(58.976 321.976)"><path class="d" d="M357.382,5a358.088,358.088,0,0,0-36.035,1.82A351.848,351.848,0,0,0,6.82,321.347a357.731,357.731,0,0,0,0,72.07A351.847,351.847,0,0,0,321.347,707.945a357.743,357.743,0,0,0,72.07,0A351.847,351.847,0,0,0,707.945,393.417a357.743,357.743,0,0,0,0-72.07A351.848,351.848,0,0,0,393.417,6.82,358.088,358.088,0,0,0,357.382,5m0-5C554.759,0,714.764,160.005,714.764,357.382S554.759,714.764,357.382,714.764,0,554.759,0,357.382,160.005,0,357.382,0Z" transform="translate(187.587 23.896) rotate(34)"/></g></g></svg>