<svg xmlns="http://www.w3.org/2000/svg" xmlns:xlink="http://www.w3.org/1999/xlink" width="37.611" height="19.32" viewBox="0 0 37.611 19.32"><defs><style>.a{stroke:#fff;fill:url(#a);}</style><linearGradient id="a" x1="0.5" x2="0.5" y2="1" gradientUnits="objectBoundingBox"><stop offset="0" stop-color="#fceabb"/><stop offset="1" stop-color="#f8b500"/></linearGradient></defs><path class="a" d="M12.476,255.644c-.758-1.378-1.466-2.664-2.173-3.95-.575-1.045-1.155-2.088-1.717-3.139a.451.451,0,0,0-.517-.284c-2.069.2-4.14.388-6.211.576-.592.054-1.184.1-1.858.151l5.7-10.744a15.259,15.259,0,0,0,12.235,5.936,15.506,15.506,0,0,0,12.275-5.9l5.665,10.673c-.64-.045-1.185-.074-1.729-.123-1.448-.13-2.9-.269-4.344-.4-.634-.059-1.274-.081-1.9-.182-.357-.057-.491.1-.636.364q-1.782,3.292-3.579,6.576c-.071.131-.15.257-.264.454l-5.476-10.309-5.472,10.3" transform="translate(0.87 -237.36)"/></svg>