<svg xmlns="http://www.w3.org/2000/svg" xmlns:xlink="http://www.w3.org/1999/xlink" width="47.122" height="23.933" viewBox="0 0 47.122 23.933"><defs><style>.a{stroke:#fff;fill:url(#a);}</style><linearGradient id="a" x1="0.5" x2="0.5" y2="1" gradientUnits="objectBoundingBox"><stop offset="0" stop-color="#fceabb"/><stop offset="1" stop-color="#f8b500"/></linearGradient></defs><path class="a" d="M15.784,260.255c-.959-1.744-1.855-3.37-2.749-5-.727-1.322-1.461-2.641-2.172-3.972a.57.57,0,0,0-.655-.359c-2.618.256-5.238.491-7.857.728-.749.068-1.5.122-2.351.191l7.214-13.592a19.3,19.3,0,0,0,15.478,7.51,19.616,19.616,0,0,0,15.529-7.459l7.167,13.5c-.81-.057-1.5-.093-2.187-.155-1.832-.165-3.663-.341-5.5-.51-.8-.074-1.612-.1-2.406-.23-.452-.072-.621.123-.8.46q-2.254,4.165-4.528,8.32c-.09.165-.189.326-.334.574l-6.928-13.042-6.922,13.03" transform="translate(0.87 -237.36)"/></svg>