<svg xmlns="http://www.w3.org/2000/svg" width="6.27" height="19.611" viewBox="0 0 6.27 19.611"><defs><style>.a{fill:#fac73f;}</style></defs><path class="a" d="M219.931,84.2c-.284-.73-.531-1.478-.867-2.183a1.1,1.1,0,0,0-1.092-.6,1.322,1.322,0,0,1-1.208-.637c.794-.474,1.231.239,1.819.55a3.7,3.7,0,0,1,.435-2.151,1.916,1.916,0,0,1,.257,2.2.87.87,0,0,0,.016.88c.244.5.449,1.01.676,1.53l.82-1.581.172.071a2.668,2.668,0,0,1-.405,2.351,1.187,1.187,0,0,0-.17.706c.065.563.2,1.117.314,1.7l1.17-1.448.179.1a2.11,2.11,0,0,1-.6,1.823c-.939.781-.709,1.769-.75,2.793l1.545-1.191.144.154a3.068,3.068,0,0,1-1.428,2,1.246,1.246,0,0,0-.665.927c-.093.456-.236.9-.37,1.4l1.876-.935.114.177a3.2,3.2,0,0,1-1.885,1.722,1.433,1.433,0,0,0-.953.872c-.182.408-.423.789-.661,1.223l2.136-.534.067.194a3.332,3.332,0,0,1-2.021,1.27,2.3,2.3,0,0,0-1.732,1,.673.673,0,0,1-.153.143.818.818,0,0,1-.15.062l-.443-.424c.243-.26.441-.5.672-.714a1.282,1.282,0,0,0,.318-1.516,5.245,5.245,0,0,1-.123-1.793c.773.617.654,1.415.584,2.276.137-.177.288-.344.407-.532.246-.384.455-.792.715-1.166a1.169,1.169,0,0,0-.088-1.539,2.135,2.135,0,0,1-.386-1.629c.877.438.757,1.293.909,2.017l.175.014a23.637,23.637,0,0,0,.685-2.443c.046-.253-.257-.632-.491-.859a2.522,2.522,0,0,1-.759-1.485c.927.212,1.053,1,1.3,1.686l.2-.044a22.138,22.138,0,0,0,.129-2.467c-.012-.261-.385-.57-.664-.737a2.344,2.344,0,0,1-1-1.2c.98-.085,1.157.745,1.625,1.231a5.645,5.645,0,0,0-.359-2.6,1.388,1.388,0,0,0-.807-.507,1.905,1.905,0,0,1-1.118-.938c.91-.276,1.237.508,1.747.917l.145-.137" transform="translate(-216.111 -79.175)"/></svg>