<svg xmlns="http://www.w3.org/2000/svg" width="19.999" height="19.999" viewBox="0 0 19.999 19.999"><defs><style>.a{fill:#fac73f;}</style></defs><path class="a" d="M424.335,1574.985l1.324,3.34a9.984,9.984,0,0,0,1.287-.506l-1.12-3.095a6.282,6.282,0,0,1-1.491.261m-2.123,3.79c.142.006.284.01.426.01.323,0,.641-.017.956-.045l.008-3.761a6.3,6.3,0,0,1-1.506-.284Zm4.465-4.381,2.066,2.323a9.88,9.88,0,0,0,1.038-.914l-1.843-2.2a6.354,6.354,0,0,1-1.258.794M418.3,1577.8a10.05,10.05,0,0,0,1.866.675l1.335-4.012a6.319,6.319,0,0,1-1.6-1.021Zm10.4-4.941,2.4,1.294a10.122,10.122,0,0,0,.663-1.212l-2.229-1.292a6.171,6.171,0,0,1-.83,1.21m1.269-2.28,2.463.362a9.934,9.934,0,0,0,.2-1.366l-2.412-.43a6.082,6.082,0,0,1-.255,1.432m-.152-4.033a6.215,6.215,0,0,1,.362,1.414l2.4-.494a10.163,10.163,0,0,0-.274-1.354l-2.488.431Zm-1.436-2.181a6.269,6.269,0,0,1,.923,1.154l2.224-1.368a9.8,9.8,0,0,0-.725-1.175l-2.42,1.389Zm-2.13-1.373a6.2,6.2,0,0,1,1.326.706l1.823-2.3a9.947,9.947,0,0,0-1.083-.858l-2.066,2.451Zm-10.78-1.206,3.147,3.541-4.121-2.389a9.953,9.953,0,0,0-1,1.714l4.179,2.256-4.7-.838a9.856,9.856,0,0,0-.344,1.953l4.7.694-4.7.819a9.851,9.851,0,0,0,.344,1.953l4.655-.955-4.136,2.375a9.927,9.927,0,0,0,1,1.714l4.041-2.484-3.067,3.638a10.024,10.024,0,0,0,1.522,1.272l2.877-3.63a6.181,6.181,0,0,1-2.088-4.636,6.26,6.26,0,0,1,2.181-4.719l-2.97-3.55a10.009,10.009,0,0,0-1.522,1.272m8.408.792c.043,0,.084,0,.128,0a6.205,6.205,0,0,1,1.394.158l1.063-3.2a10.113,10.113,0,0,0-1.312-.438l-1.275,3.477Zm-5.58-2.815,1.7,4.275a6.2,6.2,0,0,1,1.607-.982l-1.436-3.967a10.011,10.011,0,0,0-1.866.675m3.349-.932.117,4.161a6.2,6.2,0,0,1,1.86-.4l.008-3.755c-.327-.033-.661-.049-1-.049a9.779,9.779,0,0,0-.987.049" transform="translate(-412.638 -1558.786)"/></svg>