<svg xmlns="http://www.w3.org/2000/svg" width="19.999" height="19.999" viewBox="0 0 19.999 19.999"><defs><style>.a{fill:#fac73f;}</style></defs><path class="a" d="M424.335,1574.984l1.324,3.339a9.967,9.967,0,0,0,1.287-.506l-1.12-3.095a6.281,6.281,0,0,1-1.491.261m-2.123,3.79c.142.006.284.01.426.01.323,0,.641-.017.956-.045l.008-3.761a6.284,6.284,0,0,1-1.506-.284Zm4.465-4.381,2.066,2.323a9.85,9.85,0,0,0,1.038-.914l-1.843-2.2a6.355,6.355,0,0,1-1.258.794m-8.378,3.41a10.057,10.057,0,0,0,1.866.675l1.335-4.012a6.322,6.322,0,0,1-1.6-1.021Zm10.4-4.941,2.4,1.295a10.134,10.134,0,0,0,.663-1.212l-2.228-1.292a6.163,6.163,0,0,1-.83,1.21m1.269-2.28,2.463.362a9.936,9.936,0,0,0,.2-1.366l-2.412-.43a6.081,6.081,0,0,1-.255,1.432m-.152-4.033a6.218,6.218,0,0,1,.362,1.414l2.4-.494a10.157,10.157,0,0,0-.274-1.354l-2.488.432Zm-1.436-2.181a6.268,6.268,0,0,1,.923,1.154l2.224-1.368a9.8,9.8,0,0,0-.725-1.175l-2.42,1.389Zm-2.13-1.373a6.2,6.2,0,0,1,1.326.706l1.823-2.3a9.93,9.93,0,0,0-1.083-.858l-2.066,2.451Zm-10.78-1.206,3.147,3.541-4.121-2.389a9.964,9.964,0,0,0-1,1.714l4.179,2.256-4.7-.838a9.853,9.853,0,0,0-.344,1.953l4.7.693-4.7.819a9.855,9.855,0,0,0,.344,1.953l4.655-.955-4.136,2.375a9.919,9.919,0,0,0,1,1.714l4.041-2.483-3.067,3.638a10.038,10.038,0,0,0,1.522,1.272l2.877-3.63a6.18,6.18,0,0,1-2.088-4.636,6.259,6.259,0,0,1,2.181-4.718l-2.97-3.55a9.993,9.993,0,0,0-1.522,1.272m8.407.792c.043,0,.084,0,.128,0a6.212,6.212,0,0,1,1.394.159l1.063-3.2a10.132,10.132,0,0,0-1.312-.438l-1.275,3.477Zm-5.58-2.815,1.7,4.274a6.207,6.207,0,0,1,1.606-.982l-1.436-3.967a10.01,10.01,0,0,0-1.866.675m3.349-.932.117,4.161a6.2,6.2,0,0,1,1.86-.4l.008-3.755c-.327-.033-.661-.049-1-.049a9.778,9.778,0,0,0-.987.049" transform="translate(-412.638 -1558.786)"/></svg>