<svg xmlns="http://www.w3.org/2000/svg" width="4.956" height="15.502" viewBox="0 0 4.956 15.502"><defs><style>.a{fill:#d06437;}</style></defs><path class="a" d="M219.13,83.147c-.225-.577-.42-1.168-.685-1.726a.866.866,0,0,0-.863-.477,1.045,1.045,0,0,1-.955-.5c.628-.375.973.189,1.438.435a2.923,2.923,0,0,1,.344-1.7,1.514,1.514,0,0,1,.2,1.736.687.687,0,0,0,.012.7c.193.392.355.8.534,1.209l.648-1.249.136.056a2.109,2.109,0,0,1-.321,1.858.938.938,0,0,0-.134.558c.051.445.159.883.248,1.346l.925-1.145.141.078a1.668,1.668,0,0,1-.478,1.441c-.742.618-.56,1.4-.593,2.208l1.221-.941.114.122a2.425,2.425,0,0,1-1.129,1.583.985.985,0,0,0-.526.733c-.074.361-.187.713-.292,1.1l1.483-.739.09.14a2.526,2.526,0,0,1-1.49,1.361,1.133,1.133,0,0,0-.754.689c-.144.322-.335.624-.523.967l1.688-.422.053.153a2.634,2.634,0,0,1-1.6,1,1.816,1.816,0,0,0-1.369.794.533.533,0,0,1-.121.113.647.647,0,0,1-.119.049l-.35-.335c.192-.206.349-.4.531-.564a1.013,1.013,0,0,0,.251-1.2,4.146,4.146,0,0,1-.1-1.418c.611.488.517,1.119.462,1.8.108-.14.227-.272.322-.421.194-.3.36-.626.565-.922a.924.924,0,0,0-.07-1.216,1.688,1.688,0,0,1-.3-1.287c.693.346.6,1.022.718,1.594l.138.011a18.686,18.686,0,0,0,.542-1.931c.036-.2-.2-.5-.388-.679a1.994,1.994,0,0,1-.6-1.174c.733.168.833.792,1.03,1.333l.162-.035a17.5,17.5,0,0,0,.1-1.95c-.01-.206-.3-.451-.525-.583a1.853,1.853,0,0,1-.793-.945c.775-.067.915.589,1.284.973a4.462,4.462,0,0,0-.284-2.055,1.1,1.1,0,0,0-.638-.4,1.506,1.506,0,0,1-.883-.742c.72-.218.978.4,1.381.725l.115-.108" transform="translate(-216.111 -79.175)"/></svg>