<svg xmlns="http://www.w3.org/2000/svg" width="5.094" height="15.566" viewBox="0 0 5.094 15.566"><defs><style>.a{fill:#707070;}</style></defs><path class="a" d="M80.562,83.7l.94,1.145c.064-.359.11-.7.187-1.035a1.021,1.021,0,0,0-.134-1,1.6,1.6,0,0,1-.139-1.781l.662,1.252c.226-.532.457-1.052.661-1.582.029-.074-.072-.2-.116-.3a1.9,1.9,0,0,1,.144-1.823,2.691,2.691,0,0,1,.4,1.733c.467-.177.8-.794,1.434-.414a.944.944,0,0,1-.844.507,1.066,1.066,0,0,0-1.124.8,13.958,13.958,0,0,0-.469,1.472c.46-.267.711-.905,1.419-.685a1.19,1.19,0,0,1-.851.728.924.924,0,0,0-.819.861,14.935,14.935,0,0,0-.144,1.611c.4-.36.522-1.051,1.28-.968a1.32,1.32,0,0,1-.717.9.941.941,0,0,0-.61,1.061c.062.5.111,1.008.226,1.531.291-.5.351-1.161,1.1-1.3a1.63,1.63,0,0,1-.587,1.137.9.9,0,0,0-.331,1.136c.183.488.334.988.561,1.486.18-.567.081-1.245.77-1.588a1.533,1.533,0,0,1-.268,1.23,1.022,1.022,0,0,0-.051,1.363c.28.407.527.837.858,1.248-.044-.657-.2-1.318.489-1.807a4.084,4.084,0,0,1-.1,1.286,1.183,1.183,0,0,0,.394,1.533c.118.1.255.173.473.317l-.443.389c-.087-.023-.126-.022-.138-.039a2.4,2.4,0,0,0-1.687-.971,2.374,2.374,0,0,1-1.433-1.02,4.116,4.116,0,0,1,1.784.392c-.305-.555-.555-1.038-.838-1.5-.058-.094-.241-.117-.371-.161a2.708,2.708,0,0,1-1.585-1.412l.077-.138,1.5.739c-.149-.536-.277-1.051-.444-1.553-.035-.1-.208-.169-.326-.239a2.7,2.7,0,0,1-1.186-1.616l.114-.131,1.253.958c-.159-.7.244-1.425-.449-2.012a2.042,2.042,0,0,1-.656-1.637l.14-.1" transform="translate(-80.16 -78.572)"/></svg>