<svg xmlns="http://www.w3.org/2000/svg" width="24" height="24" viewBox="0 0 24 24"><defs><style>.a{fill:#fac73f;}</style></defs><path class="a" d="M426.675,1578.225l1.589,4.008a11.966,11.966,0,0,0,1.545-.607l-1.345-3.714a7.534,7.534,0,0,1-1.79.314m-2.548,4.548c.171.008.341.012.512.012.388,0,.769-.02,1.147-.054l.01-4.514a7.546,7.546,0,0,1-1.807-.341Zm5.359-5.257,2.479,2.788a11.836,11.836,0,0,0,1.246-1.1L431,1576.563a7.623,7.623,0,0,1-1.51.953m-10.055,4.092a12.063,12.063,0,0,0,2.239.81l1.6-4.815a7.583,7.583,0,0,1-1.923-1.225Zm12.482-5.929,2.875,1.553a12.149,12.149,0,0,0,.8-1.455l-2.674-1.551a7.4,7.4,0,0,1-1,1.452m1.523-2.736,2.956.434a11.93,11.93,0,0,0,.245-1.64l-2.894-.516a7.3,7.3,0,0,1-.306,1.718m-.183-4.84a7.461,7.461,0,0,1,.435,1.7l2.882-.593a12.188,12.188,0,0,0-.329-1.625l-2.986.518Zm-1.723-2.617a7.524,7.524,0,0,1,1.107,1.385l2.669-1.642a11.754,11.754,0,0,0-.87-1.41l-2.9,1.667Zm-2.556-1.647a7.44,7.44,0,0,1,1.592.847l2.187-2.759a11.928,11.928,0,0,0-1.3-1.029l-2.479,2.941Zm-12.937-1.447,3.777,4.25-4.946-2.867a11.956,11.956,0,0,0-1.2,2.057l5.015,2.707-5.638-1.005a11.824,11.824,0,0,0-.413,2.343l5.64.832-5.64.983a11.827,11.827,0,0,0,.413,2.344l5.586-1.146-4.963,2.85a11.91,11.91,0,0,0,1.2,2.057l4.849-2.98-3.68,4.365a12.033,12.033,0,0,0,1.827,1.527l3.453-4.356a7.417,7.417,0,0,1-2.506-5.564,7.512,7.512,0,0,1,2.617-5.662l-3.564-4.26a12,12,0,0,0-1.827,1.526m10.09.951c.052,0,.1-.005.153-.005a7.452,7.452,0,0,1,1.673.19l1.275-3.835a12.162,12.162,0,0,0-1.574-.526l-1.53,4.173Zm-6.7-3.378,2.034,5.13a7.447,7.447,0,0,1,1.928-1.178l-1.723-4.761a12.012,12.012,0,0,0-2.239.81m4.019-1.118.141,4.993a7.447,7.447,0,0,1,2.232-.484l.01-4.507c-.393-.039-.793-.059-1.2-.059a11.721,11.721,0,0,0-1.184.059" transform="translate(-412.638 -1558.786)"/></svg>