<svg xmlns="http://www.w3.org/2000/svg" width="6.444" height="19.692" viewBox="0 0 6.444 19.692"><defs><style>.a{fill:#fac73f;}</style></defs><path class="a" d="M80.668,85.055,81.857,86.5c.08-.454.139-.886.237-1.309a1.292,1.292,0,0,0-.17-1.265,2.028,2.028,0,0,1-.176-2.253l.837,1.584c.286-.674.578-1.331.836-2,.036-.094-.091-.253-.146-.38a2.407,2.407,0,0,1,.183-2.306,3.4,3.4,0,0,1,.506,2.192c.59-.224,1.014-1.005,1.814-.523a1.194,1.194,0,0,1-1.068.641,1.348,1.348,0,0,0-1.422,1.012,17.657,17.657,0,0,0-.593,1.862c.582-.337.9-1.145,1.8-.867a1.506,1.506,0,0,1-1.077.921,1.169,1.169,0,0,0-1.036,1.09,18.893,18.893,0,0,0-.182,2.038c.508-.455.661-1.33,1.619-1.225a1.67,1.67,0,0,1-.908,1.138,1.19,1.19,0,0,0-.771,1.343c.078.637.14,1.275.286,1.937.369-.628.444-1.469,1.388-1.645a2.062,2.062,0,0,1-.743,1.438,1.141,1.141,0,0,0-.419,1.437c.232.617.422,1.25.709,1.88.228-.718.1-1.575.974-2.009a1.939,1.939,0,0,1-.339,1.556,1.292,1.292,0,0,0-.065,1.724c.355.515.667,1.058,1.085,1.579-.055-.831-.248-1.668.618-2.286a5.167,5.167,0,0,1-.124,1.627,1.5,1.5,0,0,0,.5,1.939c.149.124.323.218.6.4l-.561.492c-.11-.03-.159-.028-.174-.049a3.039,3.039,0,0,0-2.135-1.228,3,3,0,0,1-1.813-1.29,5.207,5.207,0,0,1,2.256.5c-.386-.7-.7-1.313-1.06-1.9-.073-.119-.305-.148-.469-.2a3.426,3.426,0,0,1-2.005-1.787l.1-.174,1.892.934c-.188-.678-.35-1.329-.561-1.965-.044-.132-.263-.214-.412-.3a3.419,3.419,0,0,1-1.5-2.044l.144-.165L81.89,89.8c-.2-.891.309-1.8-.568-2.545a2.583,2.583,0,0,1-.83-2.071l.177-.13" transform="translate(-80.16 -78.572)"/></svg>