<svg xmlns="http://www.w3.org/2000/svg" width="30" height="30" viewBox="0 0 30 30"><defs><style>.a,.b,.c{fill:none;}.b{stroke:#000;}.b,.c{stroke-linecap:round;stroke-linejoin:round;stroke-width:2px;}.c{stroke:#231f20;}</style></defs><path class="a" d="M0,0H30V30H0Z"/><path class="b" d="M3,19.451H6A6.268,6.268,0,0,0,11.127,16.8l.222-.315m4.581-6.508.222-.316A6.268,6.268,0,0,1,21.278,7h4.252" transform="translate(0.735 1.774)"/><path class="b" d="M18,4l3.735,3.735L18,11.471" transform="translate(4.529 1.007)"/><path class="c" d="M3,7H6a6.268,6.268,0,0,1,5.126,2.655l5.024,7.14a6.268,6.268,0,0,0,5.127,2.656h4.252" transform="translate(0.735 1.774)"/><path class="b" d="M18,21.471l3.735-3.735L18,14" transform="translate(4.529 3.523)"/></svg>