<svg xmlns="http://www.w3.org/2000/svg" width="9.541" height="5.225" viewBox="0 0 9.541 5.225"><defs><style>.a{fill:#231f20;stroke:#231f20;stroke-width:0.5px;}</style></defs><path class="a" d="M-46.9-209.977-50.85-206.3a.472.472,0,0,1-.043.05.536.536,0,0,1-.713,0,.5.5,0,0,1-.045-.05l-3.951-3.678a.443.443,0,0,1-.032-.625.4.4,0,0,1,.032-.033.527.527,0,0,1,.706,0l3.646,3.4,3.646-3.4a.527.527,0,0,1,.706,0,.443.443,0,0,1,.033.626A.413.413,0,0,1-46.9-209.977Z" transform="translate(56.041 211.055)"/></svg>