<svg xmlns="http://www.w3.org/2000/svg" width="30" height="30" viewBox="0 0 30 30"><defs><style>.a{fill:none;}.b{fill:#060707;fill-rule:evenodd;}</style></defs><g transform="translate(68 -25)"><path class="a" d="M0,0H30V30H0Z" transform="translate(-68 25)"/><g transform="translate(-64.92 28.065)"><g transform="translate(4 2)"><path class="b" d="M15.84,16.193c0,3.3-4.52,3.677-7.919,3.677H7.678C5.512,19.865,0,19.728,0,16.173c0-3.229,4.338-3.66,7.711-3.676h.453C10.33,12.5,15.84,12.638,15.84,16.193ZM7.921,14C3.66,14,1.5,14.728,1.5,16.173s2.16,2.2,6.421,2.2,6.419-.732,6.419-2.177S12.181,14,7.921,14Zm0-14a5.31,5.31,0,0,1,0,10.619H7.889A5.31,5.31,0,0,1,7.921,0Zm0,1.428a3.882,3.882,0,0,0-.029,7.764l.029.714V9.192a3.882,3.882,0,0,0,0-7.764Z"/></g></g></g></svg>