<svg xmlns="http://www.w3.org/2000/svg" width="22.639" height="21.173" viewBox="0 0 22.639 21.173"><defs><style>.a{fill-rule:evenodd;}</style></defs><path class="a" d="M16.06,0a6.608,6.608,0,0,1,6.578,6.624v7.926a6.609,6.609,0,0,1-6.578,6.624H6.579A6.609,6.609,0,0,1,0,14.549V6.624A6.609,6.609,0,0,1,6.579,0Zm0,1.656H6.579A4.957,4.957,0,0,0,1.645,6.624v7.926a4.957,4.957,0,0,0,4.934,4.967H16.06a4.956,4.956,0,0,0,4.933-4.967V14.24H17.376a3.8,3.8,0,0,1,0-7.6h3.617V6.624A4.956,4.956,0,0,0,16.06,1.656ZM20.993,8.3H17.376a2.144,2.144,0,0,0,0,4.287h3.617ZM17.878,9.545a.828.828,0,0,1,0,1.656h-.342a.828.828,0,0,1,0-1.656ZM11.72,5.011a.828.828,0,0,1,0,1.656H5.8a.828.828,0,0,1,0-1.656Z" transform="translate(0 0)"/></svg>