<svg xmlns="http://www.w3.org/2000/svg" width="20.639" height="19.173" viewBox="0 0 20.639 19.173"><defs><style>.a{fill-rule:evenodd;}</style></defs><g transform="translate(0)"><path class="a" d="M14.642,0a6,6,0,0,1,6,6v7.177a6,6,0,0,1-6,6H6a6.005,6.005,0,0,1-6-6V6A6,6,0,0,1,6,0Zm0,1.5H6A4.5,4.5,0,0,0,1.5,6v7.177a4.5,4.5,0,0,0,4.5,4.5h8.644a4.5,4.5,0,0,0,4.5-4.5V12.9h-3.3a3.441,3.441,0,1,1,0-6.882h3.3V6A4.5,4.5,0,0,0,14.642,1.5Zm4.5,6.013h-3.3a1.941,1.941,0,1,0,0,3.882h3.3ZM16.3,8.644a.75.75,0,0,1,0,1.5h-.312a.75.75,0,0,1,0-1.5ZM10.685,4.538a.75.75,0,0,1,0,1.5h-5.4a.75.75,0,0,1,0-1.5Z"/></g></svg>