<svg xmlns="http://www.w3.org/2000/svg" xmlns:xlink="http://www.w3.org/1999/xlink" width="540.065" height="540.065" viewBox="0 0 540.065 540.065"><defs><style>.a{fill:#34c77b;opacity:0.68;}.b{stroke:#fff;fill:url(#a);}.c{fill:url(#b);}.d{stroke:none;}.e{fill:none;}</style><linearGradient id="a" x1="0.5" x2="0.5" y2="1" gradientUnits="objectBoundingBox"><stop offset="0" stop-color="#fceabb"/><stop offset="1" stop-color="#f8b500"/></linearGradient><linearGradient id="b" x1="0.863" y1="0.158" x2="0.139" y2="0.843" gradientUnits="objectBoundingBox"><stop offset="0" stop-color="#27d182"/><stop offset="0.51" stop-color="#fac73f"/><stop offset="1" stop-color="#c2992a"/></linearGradient></defs><g transform="translate(-1548.968 -1826.967)"><circle class="a" cx="67" cy="67" r="67" transform="translate(1562 1980)"/><g class="b" transform="translate(1640 1918)"><circle class="d" cx="179" cy="179" r="179"/><circle class="e" cx="179" cy="179" r="178.5"/></g><path class="c" d="M190.971,2.672a191.348,191.348,0,0,0-19.256.972A188.014,188.014,0,0,0,3.644,171.715a191.157,191.157,0,0,0,0,38.511A188.013,188.013,0,0,0,171.715,378.3a191.161,191.161,0,0,0,38.511,0A188.013,188.013,0,0,0,378.3,210.226a191.161,191.161,0,0,0,0-38.511A188.014,188.014,0,0,0,210.226,3.644a191.348,191.348,0,0,0-19.256-.972m0-2.672c105.47,0,190.971,85.5,190.971,190.971s-85.5,190.971-190.971,190.971S0,296.441,0,190.971,85.5,0,190.971,0Z" transform="matrix(-0.695, 0.719, -0.719, -0.695, 2089.032, 2092.286)"/></g></svg>